<svg width="105" height="105" viewBox="0 0 105 105" fill="none" xmlns="http://www.w3.org/2000/svg">
<path d="M44.7917 61.4583L33.5937 50.2604C32.6389 49.3056 31.4236 48.8281 29.9479 48.8281C28.4722 48.8281 27.2569 49.3056 26.3021 50.2604C25.3472 51.2153 24.8698 52.4306 24.8698 53.9062C24.8698 55.3819 25.3472 56.5972 26.3021 57.5521L41.1458 72.3958C42.1875 73.4375 43.4028 73.9583 44.7917 73.9583C46.1806 73.9583 47.3958 73.4375 48.4375 72.3958L77.8646 42.9687C78.8194 42.0139 79.2969 40.7986 79.2969 39.3229C79.2969 37.8472 78.8194 36.6319 77.8646 35.6771C76.9097 34.7222 75.6944 34.2448 74.2188 34.2448C72.7431 34.2448 71.5278 34.7222 70.5729 35.6771L44.7917 61.4583ZM52.0833 104.167C44.8785 104.167 38.1076 102.799 31.7708 100.062C25.434 97.3264 19.9219 93.6163 15.2344 88.9323C10.5469 84.2448 6.83681 78.7326 4.10417 72.3958C1.37153 66.059 0.00347222 59.2882 0 52.0833C0 44.8785 1.36806 38.1076 4.10417 31.7708C6.84028 25.434 10.5503 19.9219 15.2344 15.2344C19.9219 10.5469 25.434 6.83681 31.7708 4.10417C38.1076 1.37153 44.8785 0.00347222 52.0833 0C59.2882 0 66.059 1.36806 72.3958 4.10417C78.7326 6.84028 84.2448 10.5503 88.9323 15.2344C93.6198 19.9219 97.3316 25.434 100.068 31.7708C102.804 38.1076 104.17 44.8785 104.167 52.0833C104.167 59.2882 102.799 66.059 100.062 72.3958C97.3264 78.7326 93.6163 84.2448 88.9323 88.9323C84.2448 93.6198 78.7326 97.3316 72.3958 100.068C66.059 102.804 59.2882 104.17 52.0833 104.167Z" fill="#4ECB71"/>
</svg>
