<svg width="100" height="100" viewBox="0 0 100 100" fill="none" xmlns="http://www.w3.org/2000/svg">
<path opacity="0.5" d="M49.9999 8.3335C41.7591 8.3335 33.7032 10.7772 26.8512 15.3556C19.9991 19.934 14.6586 26.4414 11.505 34.055C8.35131 41.6686 7.52617 50.0464 9.13388 58.1289C10.7416 66.2115 14.71 73.6358 20.5372 79.4629C26.3643 85.2901 33.7886 89.2585 41.8712 90.8662C49.9537 92.4739 58.3315 91.6488 65.9451 88.4951C73.5587 85.3415 80.0661 80.001 84.6445 73.1489C89.2229 66.2969 91.6666 58.2411 91.6666 50.0002C91.6666 44.5284 90.5889 39.1103 88.4949 34.055C86.401 28.9998 83.3318 24.4065 79.4627 20.5374C75.5936 16.6683 71.0003 13.5991 65.9451 11.5052C60.8899 9.41124 55.4717 8.3335 49.9999 8.3335ZM49.9999 83.3335C43.4072 83.3335 36.9626 81.3785 31.4809 77.7158C25.9993 74.0531 21.7269 68.8471 19.204 62.7563C16.681 56.6654 16.0209 49.9632 17.3071 43.4972C18.5933 37.0311 21.768 31.0917 26.4297 26.4299C31.0915 21.7682 37.0309 18.5935 43.4969 17.3073C49.963 16.0211 56.6652 16.6813 62.7561 19.2042C68.8469 21.7271 74.0529 25.9995 77.7156 31.4812C81.3783 36.9628 83.3333 43.4075 83.3333 50.0002C83.3333 58.8407 79.8214 67.3192 73.5702 73.5704C67.319 79.8216 58.8405 83.3335 49.9999 83.3335Z" fill="#00416F"/>
<path d="M83.3333 50.0002H91.6667C91.6667 44.5284 90.5889 39.1103 88.495 34.055C86.401 28.9998 83.3319 24.4065 79.4628 20.5374C75.5937 16.6683 71.0004 13.5991 65.9451 11.5052C60.8899 9.41124 55.4717 8.3335 50 8.3335V16.6668C58.8406 16.6668 67.319 20.1787 73.5702 26.4299C79.8214 32.6812 83.3333 41.1596 83.3333 50.0002Z" fill="#00416F"/>
</svg>
