<svg width="75" height="73" viewBox="0 0 75 73" fill="none" xmlns="http://www.w3.org/2000/svg">
<path fill-rule="evenodd" clip-rule="evenodd" d="M49.6193 58.8974C47.0634 63.3212 44.1804 65.7356 41.4893 66.6224V50.8048C41.4893 50.1316 40.835 49.6474 40.216 49.9121C39.8219 50.0806 39.4433 50.2705 39.0957 50.4843C38.1542 51.0634 37.3973 52.1445 36.7942 53.4111C36.7325 53.5406 36.7021 53.6827 36.7021 53.8262V66.6224C36.0317 66.4015 35.2896 66.9487 35.4471 67.6367C35.5767 68.2033 35.7279 68.7977 35.9042 69.4148C36.0455 69.9094 36.2369 70.4916 36.4562 71.1148C36.5876 71.4884 36.9309 71.7465 37.3265 71.7657C37.9126 71.7941 38.5025 71.8085 39.0957 71.8085C58.9251 71.8085 75 55.7336 75 35.9043C75 16.0749 58.9251 0 39.0957 0C19.2663 0 3.19147 16.0749 3.19147 35.9043C3.19147 36.8039 4.39847 37.0608 4.90052 36.3142C4.99423 36.1749 5.0894 36.0382 5.18615 35.9042C6.33461 34.3143 7.17373 33.1737 8.02523 32.1833C8.15601 32.0312 8.24053 31.8441 8.26774 31.6454C9.74876 20.8245 16.793 11.7757 26.4229 7.47628C23.537 11.3357 21.255 16.4821 19.864 22.4187C19.687 23.1742 20.4221 23.8202 21.1726 23.6233C22.0624 23.3899 22.9906 23.2044 23.981 23.0552C24.3883 22.9938 24.7215 22.6964 24.826 22.298C25.7635 18.7228 27.0488 15.5475 28.5721 12.9111C31.1281 8.48728 34.0111 6.0729 36.7021 5.18606V23.3871C36.7021 23.8032 36.9605 24.1739 37.3453 24.3321C37.9307 24.5729 38.5139 24.8398 39.0957 25.1329C39.2314 25.2013 39.3615 25.2704 39.4865 25.3404C40.2809 25.7853 41.4893 25.2667 41.4893 24.3562V5.18606C44.1804 6.0729 47.0634 8.48728 49.6193 12.9111C52.5969 18.0645 54.6652 25.2765 55.0041 33.5106H47.0487C46.3617 33.5106 45.8783 34.1887 46.0485 34.8543C46.1152 35.115 46.1654 35.3374 46.2014 35.5095C46.2543 35.762 46.3906 35.9909 46.5908 36.1535C47.0072 36.4919 47.7871 37.1518 48.6197 37.9913C48.8121 38.1852 49.0728 38.2979 49.3459 38.2979H55.0041C54.6652 46.532 52.5969 53.744 49.6193 58.8974ZM59.795 38.2979C59.3923 48.8871 56.3371 58.2225 51.7686 64.3322C61.9469 59.788 69.2366 49.938 70.122 38.2979H59.795ZM70.122 33.5106H59.795C59.3923 22.9214 56.3371 13.586 51.7686 7.47628C61.9469 12.0205 69.2366 21.8705 70.122 33.5106Z" fill="white"/>
<path fill-rule="evenodd" clip-rule="evenodd" d="M6.99907 37.169C6.80233 37.4423 6.59955 37.7241 6.3889 38.0153C4.79795 40.2145 4.13319 41.5808 2.99774 43.9145C2.72092 44.4834 2.41614 45.1099 2.06313 45.8199C0.709395 48.5427 0.217263 50.4689 0.0385974 51.534C-0.051471 52.071 0.372799 52.5075 0.917253 52.5075H3.51257C3.51257 52.5075 3.88591 56.093 4.3286 58.2584C4.53968 59.2908 4.75802 60.1467 4.9693 60.853C5.40402 62.3061 7.24978 62.2686 8.52587 61.4487C8.69264 61.3415 8.87121 61.2361 9.06231 61.1338C10.3617 60.4376 11.6723 59.9013 11.6723 59.9013C11.6723 59.9013 11.7342 62.5624 13.2251 66.0412C14.1114 68.1092 15.3261 69.3483 16.2304 70.041C16.7891 70.4691 17.6114 70.0452 17.9309 69.418C18.295 68.7031 18.9515 67.7305 20.1349 66.5471C21.6026 65.0794 22.7924 65.266 22.7924 65.266C22.7924 65.266 24.3121 67.8031 27.576 70.2677C29.6517 71.835 31.8818 72.3955 33.2305 72.5958C33.8684 72.6906 34.3417 72.1084 34.196 71.4802C33.7971 69.7611 33.104 66.6558 32.8911 64.9524C32.3596 60.7003 32.8911 58.5742 32.8911 58.5742C32.8911 58.5742 34.4535 50.602 37.5582 48.6952C39.7725 47.3354 42.6999 47.0523 42.6999 47.0523C42.6999 47.0523 45.2772 46.906 46.7798 47.4631C47.0777 47.5735 47.4126 47.7409 47.7297 47.9171C48.3476 48.2605 49.1418 47.9436 49.2396 47.2435C49.4405 45.8041 49.5941 43.6051 48.9819 42.123C47.8816 39.4589 43.5159 37.1937 43.5159 37.1937C43.5159 37.1937 42.8314 32.4934 41.068 30.2107C39.6007 28.3113 38.31 27.5893 36.1721 26.5138C32.6196 24.7265 30.0918 24.5337 26.1346 24.8707C20.9437 25.3127 17.8967 26.6484 13.7327 29.7999C10.5918 32.177 9.15958 34.1671 6.99907 37.169ZM28.9756 33.375C28.9756 33.375 29.1783 37.9675 31.0815 38.8503C34.3637 40.3729 36.7655 37.4097 36.7655 37.4097L28.9756 33.375Z" fill="white"/>
</svg>
