<svg width="50" height="48" viewBox="0 0 50 48" fill="none" xmlns="http://www.w3.org/2000/svg">
<path fill-rule="evenodd" clip-rule="evenodd" d="M6.97258 12.4351C6.77584 12.7084 6.57306 12.9902 6.36241 13.2814C4.77146 15.4806 4.1067 16.8469 2.97125 19.1806C2.69443 19.7495 2.38965 20.376 2.03665 21.086C0.682906 23.8089 0.190774 25.735 0.0121081 26.8001C-0.0779603 27.3371 0.346309 27.7737 0.890764 27.7737H3.48608C3.48608 27.7737 3.85942 31.3592 4.30211 33.5245C4.51319 34.5569 4.73153 35.4129 4.94281 36.1191C5.37753 37.5722 7.2233 37.5347 8.49938 36.7148C8.66615 36.6077 8.84472 36.5022 9.03582 36.3999C10.3352 35.7037 11.6459 35.1674 11.6459 35.1674C11.6459 35.1674 11.7077 37.8285 13.1987 41.3073C14.0849 43.3754 15.2996 44.6144 16.2039 45.3071C16.7626 45.7352 17.5849 45.3113 17.9044 44.6841C18.2685 43.9692 18.925 42.9966 20.1084 41.8132C21.5761 40.3455 22.7659 40.5321 22.7659 40.5321C22.7659 40.5321 24.2856 43.0692 27.5495 45.5338C29.6252 47.1011 31.8553 47.6616 33.204 47.8619C33.8419 47.9567 34.3152 47.3745 34.1695 46.7463C33.7706 45.0273 33.0776 41.922 32.8646 40.2186C32.3331 35.9664 32.8646 33.8403 32.8646 33.8403C32.8646 33.8403 34.427 25.8681 37.5317 23.9614C39.746 22.6015 42.6734 22.3184 42.6734 22.3184C42.6734 22.3184 45.2507 22.1722 46.7533 22.7292C47.0512 22.8396 47.3862 23.0071 47.7032 23.1832C48.3211 23.5266 49.1154 23.2097 49.2131 22.5097C49.414 21.0702 49.5676 18.8713 48.9554 17.3891C47.8551 14.725 43.4894 12.4598 43.4894 12.4598C43.4894 12.4598 42.8049 7.75952 41.0415 5.47678C39.5742 3.57743 38.2835 2.85544 36.1456 1.77987C32.5931 -0.0074199 30.0653 -0.200172 26.1081 0.136793C20.9172 0.578801 17.8702 1.91448 13.7062 5.06601C10.5654 7.44314 9.13309 9.43319 6.97258 12.4351ZM28.9491 8.64108C28.9491 8.64108 29.1518 13.2336 31.055 14.1165C34.3372 15.639 36.7391 12.6758 36.7391 12.6758L28.9491 8.64108Z" fill="#0891B2"/>
</svg>
